<?xml version="1.0" standalone="no"?>
<!DOCTYPE svg PUBLIC "-//W3C//DTD SVG 20010904//EN"
 "http://www.w3.org/TR/2001/REC-SVG-20010904/DTD/svg10.dtd">
<svg version="1.0" xmlns="http://www.w3.org/2000/svg"
 width="512.000000pt" height="512.000000pt" viewBox="0 0 512.000000 512.000000"
 preserveAspectRatio="xMidYMid meet">
<metadata>
Created by potrace 1.14, written by Peter Selinger 2001-2017
</metadata>
<g transform="translate(0.000000,512.000000) scale(0.100000,-0.100000)"
fill="#000000" stroke="none">
<path d="M2455 4687 c-165 -18 -290 -63 -507 -185 -79 -44 -163 -91 -188 -104
-70 -39 -791 -439 -830 -461 -19 -11 -44 -25 -55 -31 -253 -138 -496 -278
-527 -305 -150 -128 -176 -355 -60 -523 44 -64 92 -99 242 -180 184 -99 311
-171 316 -180 4 -6 8 -295 9 -642 2 -701 0 -679 72 -825 26 -55 57 -97 117
-157 l81 -82 510 -254 c508 -254 578 -284 730 -313 78 -15 280 -21 340 -10
202 38 251 58 625 245 157 78 292 146 300 150 8 5 85 43 170 86 188 93 221
115 296 197 79 87 142 210 162 317 2 14 5 308 7 654 2 590 3 630 20 642 10 7
116 68 237 135 131 72 236 138 262 163 129 124 158 314 72 473 -53 97 -98 128
-486 340 -36 20 -91 51 -123 69 -32 19 -60 34 -62 34 -2 0 -26 13 -53 29 -27
16 -74 42 -103 59 -30 16 -263 145 -519 288 -494 274 -571 312 -696 345 -95
24 -263 37 -359 26z m235 -436 c83 -19 127 -39 311 -142 101 -56 207 -114 234
-129 66 -36 132 -73 230 -128 44 -25 98 -55 120 -67 22 -12 103 -57 180 -100
77 -43 165 -92 195 -108 246 -136 466 -260 473 -266 11 -11 -1610 -909 -1683
-932 -34 -10 -73 -21 -88 -24 -35 -7 -170 -7 -201 -1 -96 20 -167 50 -301 127
-30 18 -80 45 -110 62 -30 17 -149 83 -265 147 -115 64 -237 132 -270 150 -33
18 -73 40 -90 50 -16 10 -50 28 -75 42 -25 13 -185 102 -357 198 -247 137
-310 177 -301 187 6 7 13 13 17 13 4 0 74 37 156 83 83 46 182 101 220 122 39
21 288 159 555 308 609 338 575 319 640 354 48 26 140 55 205 66 37 6 160 -1
205 -12z m-1240 -1864 c25 -13 88 -48 140 -77 52 -29 120 -66 150 -83 30 -16
105 -58 166 -93 255 -144 339 -177 524 -204 73 -10 214 -10 270 0 25 4 59 10
75 13 61 10 173 51 255 92 47 24 247 133 445 244 l360 200 3 -477 c2 -333 -1
-490 -9 -518 -24 -90 -33 -95 -552 -353 -277 -137 -510 -246 -547 -256 -87
-24 -253 -24 -340 0 -69 18 -970 460 -1028 504 -18 13 -44 46 -57 72 l-24 47
-1 492 0 492 62 -35 c35 -19 83 -46 108 -60z"/>
</g>
</svg>
